<svg xmlns="http://www.w3.org/2000/svg" width="865.76" height="682.89" viewBox="0 0 865.76 682.89"><path d="M672.34,117.39c-25.06-25.67-53.77-47-84.28-61.92C541.59,32.65,490.41,21.68,439.22,21c-149.6-1.93-161,182.25-207,207.85S102.9,257.49,100,359.9c-1.8,64.36,12.6,130.65,52.9,180.84,37,46,91.26,69.27,144.76,86.48,60.06,19.34,123.78,38.27,187,25.26,64.85-13.39,110.4-67.16,163.69-103.54,33.58-22.89,63.62-47,84.33-83.74,2.48-4.38,4.8-8.87,7-13.42,27.71-57.07,33.14-122.91,17.86-184.68C743.78,211.65,712.82,158.86,672.34,117.39Z" fill="#4ad97d"/><path d="M672.34,117.39c-25.06-25.67-53.77-47-84.28-61.92C541.59,32.65,490.41,21.68,439.22,21c-149.6-1.93-161,182.25-207,207.85S102.9,257.49,100,359.9c-1.8,64.36,12.6,130.65,52.9,180.84,37,46,91.26,69.27,144.76,86.48,60.06,19.34,123.78,38.27,187,25.26,64.85-13.39,110.4-67.16,163.69-103.54,33.58-22.89,63.62-47,84.33-83.74,2.48-4.38,4.8-8.87,7-13.42,27.71-57.07,33.14-122.91,17.86-184.68C743.78,211.65,712.82,158.86,672.34,117.39Z" fill="#fff" opacity="0.7" style="isolation:isolate"/><g opacity="0.3"><rect x="465.52" y="51.93" width="44.59" height="18.12" fill="none" stroke="#2f2e41" stroke-linejoin="round"/><rect x="524.04" y="51.93" width="44.59" height="18.12" fill="none" stroke="#2f2e41" stroke-linejoin="round"/><rect x="493.39" y="82.58" width="44.59" height="18.12" fill="none" stroke="#2f2e41" stroke-linejoin="round"/><rect x="465.52" y="301.98" width="44.59" height="18.12" fill="none" stroke="#2f2e41" stroke-linejoin="round"/><rect x="524.04" y="301.98" width="44.59" height="18.12" fill="none" stroke="#2f2e41" stroke-linejoin="round"/><rect x="493.39" y="332.62" width="44.59" height="18.12" fill="none" stroke="#2f2e41" stroke-linejoin="round"/><rect x="600.67" y="83.98" width="44.59" height="18.12" fill="none" stroke="#2f2e41" stroke-linejoin="round"/><rect x="659.19" y="83.98" width="44.59" height="18.12" fill="none" stroke="#2f2e41" stroke-linejoin="round"/><rect x="628.54" y="114.63" width="44.59" height="18.12" fill="none" stroke="#2f2e41" stroke-linejoin="round"/><rect x="600.67" y="251.18" width="44.59" height="18.12" fill="none" stroke="#2f2e41" stroke-linejoin="round"/><rect x="659.19" y="251.18" width="44.59" height="18.12" fill="none" stroke="#2f2e41" stroke-linejoin="round"/><rect x="628.54" y="281.82" width="44.59" height="18.12" fill="none" stroke="#2f2e41" stroke-linejoin="round"/><rect x="204.98" y="148.07" width="44.59" height="18.12" fill="none" stroke="#2f2e41" stroke-linejoin="round"/><rect x="263.5" y="148.07" width="44.59" height="18.12" fill="none" stroke="#2f2e41" stroke-linejoin="round"/><rect x="232.85" y="178.72" width="44.59" height="18.12" fill="none" stroke="#2f2e41" stroke-linejoin="round"/><rect x="310.86" y="60.29" width="44.59" height="18.12" fill="none" stroke="#2f2e41" stroke-linejoin="round"/><rect x="280.22" y="90.95" width="44.59" height="18.12" fill="none" stroke="#2f2e41" stroke-linejoin="round"/><rect x="603.45" y="501.96" width="44.59" height="18.12" fill="none" stroke="#2f2e41" stroke-linejoin="round"/><rect x="572.81" y="532.61" width="44.59" height="18.12" fill="none" stroke="#2f2e41" stroke-linejoin="round"/><rect x="500.35" y="170.36" width="44.59" height="18.12" fill="none" stroke="#2f2e41" stroke-linejoin="round"/><rect x="119.99" y="210.77" width="44.59" height="18.12" fill="none" stroke="#2f2e41" stroke-linejoin="round"/><rect x="306.69" y="501.96" width="44.59" height="18.12" fill="none" stroke="#2f2e41" stroke-linejoin="round"/><rect x="276.04" y="532.61" width="44.59" height="18.12" fill="none" stroke="#2f2e41" stroke-linejoin="round"/><rect x="344.3" y="148.07" width="44.59" height="18.12" fill="none" stroke="#2f2e41" stroke-linejoin="round"/><rect x="402.83" y="148.07" width="44.59" height="18.12" fill="none" stroke="#2f2e41" stroke-linejoin="round"/><rect x="372.17" y="178.72" width="44.59" height="18.12" fill="none" stroke="#2f2e41" stroke-linejoin="round"/><rect x="659.19" y="320.84" width="44.59" height="18.12" fill="none" stroke="#2f2e41" stroke-linejoin="round"/><rect x="717.7" y="320.84" width="44.59" height="18.12" fill="none" stroke="#2f2e41" stroke-linejoin="round"/><rect x="687.05" y="351.48" width="44.59" height="18.12" fill="none" stroke="#2f2e41" stroke-linejoin="round"/><rect x="126.96" y="430.91" width="44.59" height="18.12" fill="none" stroke="#2f2e41" stroke-linejoin="round"/><rect x="185.47" y="430.91" width="44.59" height="18.12" fill="none" stroke="#2f2e41" stroke-linejoin="round"/><rect x="154.82" y="461.55" width="44.59" height="18.12" fill="none" stroke="#2f2e41" stroke-linejoin="round"/></g><rect x="216.9" y="316.89" width="163" height="200" rx="10.21" fill="#f2f2f2"/><circle cx="298.4" cy="401.35" r="58.5" fill="#e6e6e6"/><path d="M313,380.57a30.45,30.45,0,0,1-2.61,12.58c-2.88,6.33-7.87,10.51-13.55,10.51a12,12,0,0,1-5.62-1.43c-6.16-3.26-10.54-11.73-10.54-21.66,0-12.76,7.23-23.09,16.16-23.09S313,367.81,313,380.57Z" fill="#f9b499"/><path d="M296.86,363.08s-9.77,5.91-14.3,11.38c-1.39,1.69-1.51,3.54-1.48,5.72.08,5.05.87,15.86,10.16,22.05l.23,4.51a21.53,21.53,0,0,1-6.16-3.85s-.55,2.31,2.81,3.85a18.56,18.56,0,0,1-12.1-5.39s.06,2.31.83,3.08c0,0-9.24-1.54-10-10,0,0-1.54-8.46,5.39-12.31,0,0-11.55,2.31-10,13.08a15.94,15.94,0,0,0,3.85,7.7s-10.78-4.62-6.16-16.16a19.1,19.1,0,0,1,10-7.7,13.84,13.84,0,0,0,7.67-10.41,25.45,25.45,0,0,1,3.29-9.24c4.36-7.07,13.41-16.92,27.53-9.6,0,0,13.08,1.54,13.85,16.93,0,0,1.54,15.4,8.47,19.25a11.56,11.56,0,0,1,1.18.86,13,13,0,0,1,1.67,18.1,14.7,14.7,0,0,1-3.62,3.36,10.05,10.05,0,0,0,.77-6.16s-6.16,14.74-17.71,9.29a4.2,4.2,0,0,0,3.08-3.9s-3.85,1.54-5.38,0l-.31-14.35a29.93,29.93,0,0,0,2.6-11.64h0S296.86,363.3,296.86,363.08Z" fill="#2f2e41"/><ellipse cx="314.83" cy="384.42" rx="4.05" ry="3.17" transform="translate(-154.82 546.66) rotate(-69.74)" fill="#f9b499"/><path d="M310.41,393.16,311.48,416c2.31.77,2.31,1.54,2.31,1.54l-9.23,29.25-16.94,6.92L283,446l6.93-29.25,1.31-.94V402.23S302.25,409.05,310.41,393.16Z" fill="#f9b499"/><path d="M310.42,393.15c-4.93,18-19.18,15.91-19.18,15.91v-6.83a12,12,0,0,0,5.62,1.43c5.68,0,10.67-4.18,13.55-10.51Z" fill="#f7a48b"/><path d="M289.93,416.75l-9.23,40.37a47,47,0,0,1-5.63-2.09,55.52,55.52,0,0,1-16.3-10.66l3.45-13s.68-5.12,8.42-7.94L280.7,420Z" fill="#4ad97d"/><path d="M289.93,416.75l-9.23,40.37a47,47,0,0,1-5.63-2.09l-.72-10.66,6.35-3.6V420Z" fill="#fff" opacity="0.2"/><path d="M266.07,450.18a87.86,87.86,0,0,0,6.67-13.25,25.44,25.44,0,0,1-6.67,13.25Z" opacity="0.2"/><path d="M343.44,438.69a57.93,57.93,0,0,1-43.13,21.13l13.48-42.3,13.31,6.39,5.94,2.84S344.6,430.61,343.44,438.69Z" fill="#4ad97d"/><path d="M310.72,446l5.38,4.62-6.22,8.13a58.35,58.35,0,0,1-9.57,1.07l13.48-42.3,13.31,6.39Z" fill="#fff" opacity="0.2"/><path d="M283,446l-2.3,11.12a52.13,52.13,0,0,0,19.61,2.7l4.25-13.05-16.94,6.92Z" fill="#fff"/><path d="M327.39,452.49a88.81,88.81,0,0,1-6.67-13.25,25.51,25.51,0,0,0,6.67,13.25Z" opacity="0.2"/><path d="M335.47,466.05c1.7-2.41,4.38-3.61,8-3.61s6.33,1.2,8,3.61,2.57,5.7,2.57,9.88-.85,7.55-2.55,9.95-4.39,3.61-8.06,3.61-6.35-1.2-8-3.61-2.53-5.72-2.53-9.95S333.77,468.46,335.47,466.05Zm10.86,4.87a3.2,3.2,0,0,0-5.68,0,14.09,14.09,0,0,0-.69,5,14.75,14.75,0,0,0,.67,5.09,3.23,3.23,0,0,0,5.72,0,14.71,14.71,0,0,0,.68-5.09A13.83,13.83,0,0,0,346.33,470.92Z" fill="#e6e6e6"/><path d="M362.45,479.14a25.32,25.32,0,0,0,3.79-4.14,7.05,7.05,0,0,0,1.53-4.06,2.87,2.87,0,0,0-.53-1.83,1.89,1.89,0,0,0-1.55-.65,1.87,1.87,0,0,0-1.64.89,4.56,4.56,0,0,0-.54,2.61h-6.93a10.83,10.83,0,0,1,1.42-5.38,8.08,8.08,0,0,1,3.43-3.14,10.93,10.93,0,0,1,4.7-1q4.49,0,6.67,2.23a7.85,7.85,0,0,1,2.19,5.76,11.54,11.54,0,0,1-2.53,7.1,27.57,27.57,0,0,1-6.33,6h9.11v5.79H356.65v-5.36C359,482.07,360.94,480.47,362.45,479.14Z" fill="#e6e6e6"/><path d="M589.68,651.54c10.43,2.57,16.48-9,16.48-9,3.85-5.12,11.36-19.36,11.36-19.36V616.5H603.6V624a11.44,11.44,0,0,1-1.5,5.69Z" fill="#f9b499"/><path d="M579.6,661.85l8.62-.05c17.94,1.28,21.79-11.54,21.79-11.54,3.84-10.25,7.51-8.56,7.51-8.56l2.34,15h3V638.73c3.09-2.78,1.29-10.26,1.29-10.26-2-7.85-6.59-6.53-6.59-6.53v1.27s-7.51,14.24-11.36,19.36c0,0-6,11.54-16.48,9l-11.07,6.91A1.84,1.84,0,0,0,579.6,661.85Z" fill="#4ad97d"/><path d="M573.48,244.59l7.69,5.13c1.28,12.82,10.25,18,10.25,18,1.28,9,5.91,30.85,5.91,30.85,9.75,10.34,51.77,0,51.77,0,1.28-30.67,14.1-45.27,14.1-45.27v18.26L696.52,269l-10.25-56.4C685,202.3,644,191.44,644,191.44l-25.25.15-26,10.71C581.17,204.86,573.48,244.59,573.48,244.59Z" fill="#4ad97d"/><path d="M595.27,221.52c-.92,5.49-4.06,10.07-7.52,14.33-3.19,4.46-6.2,9.64-6.41,15.24a15.26,15.26,0,0,1,1.22-3.92c3.36-9.14,12.8-15.44,12.71-25.65Z" opacity="0.2"/><path d="M647.45,258c-7.7,5.32-16.84,6.49-25.3,2.28l-.93-.54a55.48,55.48,0,0,1-5.45-3.57,29.77,29.77,0,0,0,5,4.26c8.17,5.78,19.6,4.53,26.65-2.43Z" opacity="0.2"/><path d="M649.1,298.52s32,34.51,32,71.68l2.57,111.52,11.41,133.5h-29L627.31,385.59l-5.13,232H592.35L579.89,425.32s-8.8-54.49,8.41-102.23l9-24.57S606.8,308.86,649.1,298.52Z" fill="#2f2e41"/><rect x="451.71" y="240.75" width="48.71" height="76.9" transform="translate(952.13 558.4) rotate(-180)" fill="#e6e6e6"/><rect x="456.2" y="252.93" width="16.66" height="17.94" fill="#4ad97d" opacity="0.25"/><rect x="474.14" y="252.93" width="11.54" height="1.28" fill="#fff"/><rect x="474.14" y="255.49" width="23.07" height="1.28" fill="#fff"/><rect x="474.14" y="258.05" width="23.07" height="1.28" fill="#fff"/><rect x="474.14" y="260.62" width="14.1" height="1.28" fill="#fff"/><rect x="474.14" y="264.46" width="7.69" height="6.41" fill="#fff"/><rect x="456.2" y="276" width="16.66" height="17.94" fill="#4ad97d" opacity="0.25"/><rect x="474.14" y="276" width="11.54" height="1.28" fill="#fff"/><rect x="474.14" y="278.56" width="23.07" height="1.28" fill="#fff"/><rect x="474.14" y="281.12" width="23.07" height="1.28" fill="#fff"/><rect x="474.14" y="283.69" width="14.1" height="1.28" fill="#fff"/><rect x="475.43" y="300.35" width="21.79" height="2.56" transform="translate(972.64 603.26) rotate(-180)" fill="#fff"/><rect x="456.2" y="305.48" width="41.02" height="2.56" transform="translate(953.41 613.52) rotate(-180)" fill="#fff"/><rect x="456.2" y="300.35" width="16.66" height="2.56" transform="translate(929.06 603.26) rotate(-180)" fill="#fff"/><rect x="474.14" y="287.53" width="7.69" height="6.41" fill="#fff"/><rect x="417.75" y="322.14" width="117.92" height="92.28" transform="translate(953.41 736.56) rotate(-180)" fill="#b3b3b3"/><rect x="525.41" y="419.55" width="8.97" height="229.43" transform="translate(1059.8 1068.53) rotate(-180)" fill="#ccc"/><rect x="424.16" y="419.55" width="8.97" height="229.43" transform="translate(857.28 1068.53) rotate(-180)" fill="#ccc"/><path d="M661.46,649c10.43,2.56,16.48-9,16.48-9,3.84-5.13,11.35-19.37,11.35-19.37v-5.42H675.38v6.2a11.61,11.61,0,0,1-1.5,5.7Z" fill="#f9b499"/><path d="M651.37,659.29l8.62,0c18,1.28,21.79-11.54,21.79-11.54,3.85-10.25,7.51-8.56,7.51-8.56l2.35,15h3v-18c3.09-2.78,1.28-10.25,1.28-10.25-2-7.86-6.59-6.54-6.59-6.54v1.27s-7.51,14.24-11.35,19.37c0,0-6.05,11.53-16.48,9l-11.07,6.91A1.84,1.84,0,0,0,651.37,659.29Z" fill="#4ad97d"/><path d="M542,416.35s5,47.82-41.51,64.47c-17.46,6.26-36.79,5.81-53.39-2.48S413,452.73,412,416.35Z" fill="#2f2e41"/><path d="M534.38,419.55s5.5,42.33-43.54,56.48a55,55,0,0,1-40-3.28c-13.86-7-28.33-21.8-30.79-53.2Z" fill="#b3b3b3"/><path d="M431.85,420.83c2.21,26.53,17.13,37.66,29.42,42.32a46.44,46.44,0,0,0,34.94-.86c26.69-11.7,26.8-42.74,26.8-42.74H511.64S512.31,444,491.31,453a34.57,34.57,0,0,1-27.49-.26c-9.36-4.16-20.47-13.27-20.92-33.17h-11Z" fill="#4ad97d"/><path d="M501,419.55h-45.7s.66,17.6,15,22.87a22.89,22.89,0,0,0,16.72-.5C493.25,439.31,501,433.3,501,419.55Z" fill="#2f2e41"/><ellipse cx="627.31" cy="149.11" rx="21.15" ry="26.92" fill="#f9b499"/><path d="M667,193.33s3.85-3,0-9.83c0,0-1.28,8.54-10.25,8.54,0,0,2.56-3.84,1.28-7.69,0,0-3.84,6.5-14.1,7.1V165.67s4.49-7.59,4.45-15c0,0-8.41-1.94-10.52-12.74a17.5,17.5,0,0,0-3-7.16c-2-2.73-5.3-5.58-10.16-5.47a6,6,0,0,0-3.06.86c-1.89,1.18-4.65,4-4.65,10.77,0,0,0,5.78-4.4,8.56a10.52,10.52,0,0,0-2.18,1.69c-1.54,1.67-3.68,5.07-3.17,10.67a26.52,26.52,0,0,0,13,16.64l-.29,6.78a10.8,10.8,0,0,1-9.15,10.24,44.73,44.73,0,0,1-6.58.53s2.56-1.28,2.56-3.84c0,0-5.12,3.84-9,2.56,0,0,3.85-5.13,2.56-10.25,0,0-3.84,10.25-12.81,9,0,0,9-5.63,4.85-14.79a25,25,0,0,1-2.06-6.36c-.87-5.52-1-15.12,6.35-22.78a8.79,8.79,0,0,0,2.39-6.08V128.11a6.2,6.2,0,0,1,1.72-4.4c1.38-1.36,3.8-2.48,7.94-1.52,0,0,9.57-23.71,28.79-10.9,0,0,16.67-3.84,20.51,19.23a9.1,9.1,0,0,0,3.15,6.39,8.32,8.32,0,0,0,2.74,1.38c1.38.46,4,3.07,3.08,16.58,0,0-1.07,7.54,3.68,11.76a18.53,18.53,0,0,1,3.73,4.23C677.46,175.91,680.88,185.94,667,193.33Z" fill="#2f2e41"/><path d="M644,165.67v25.78a8.47,8.47,0,0,0,2.88,1.27.7.7,0,0,1,.33,1.25c-2,1.57-6.95,4-18.08,4.43a17.6,17.6,0,0,1-7.94-1.5c-2.49-1.15-4.6-2.91-2.44-5.31a4,4,0,0,0,1-2.54l.57-14.56S633.08,181.15,644,165.67Z" fill="#f9b499"/><path d="M620.26,174.49V182s15.83.61,20.41-12C640.67,170,632.44,180,620.26,174.49Z" fill="#f7a48b"/><ellipse cx="649.1" cy="152.95" rx="5.13" ry="5.77" fill="#f9b499"/><path d="M691.61,269.33s7.9,24,0,49l-17.09,51.25a10,10,0,0,0,0,6.39l9.2,26.64a1.18,1.18,0,0,1-1.11,1.56h0a1.19,1.19,0,0,1-1.06-.66l-5-10.37a.19.19,0,0,0-.37.11l2.16,15.07a1.43,1.43,0,0,1-1.41,1.63h0a1.43,1.43,0,0,1-1.35-.95l-4.66-13s0,0,0,0v16.15a1.4,1.4,0,0,1-1.13,1.38h0a1.41,1.41,0,0,1-1.66-1.16L666,398.69a.17.17,0,0,0-.34,0l-.74,11.36a1.54,1.54,0,0,1-1.87,1.4h0a1.53,1.53,0,0,1-1.2-1.41l-1.2-20.4a.1.1,0,0,0-.17-.07l-5.31,5.3a1.94,1.94,0,0,1-3.22-.76h0a1.94,1.94,0,0,1,.17-1.61c2-3.34,10-16.89,11.08-23.6l8.39-63.51a63.05,63.05,0,0,0,.51-9.9c-.22-7.66-1.06-21-4.29-24.35Z" fill="#f9b499"/><path d="M483.31,265.88c3.13,1.14,6.85-.78,6.85-.78,3.51,0,7.62,6,9.87,9.8a6.16,6.16,0,0,0,5.3,3h4.56a7.35,7.35,0,0,1,1.55.16l55.63,11.38c14.1,2.56,14.26-3.57,14.26-3.57l10.09-18.22s-9-5.13-10.25-18l-7.69-5.13-9,24.36h-56.4a17.82,17.82,0,0,0-9-6.41c-7.69-3.85-11.54-1.28-11.54-1.28l-4.49,3A.91.91,0,0,0,483.31,265.88Z" fill="#f9b499"/><rect x="415.18" y="313.17" width="124.33" height="12.82" transform="translate(954.7 639.15) rotate(-180)" fill="#ccc"/><rect x="408.77" y="409.3" width="138.43" height="14.1" transform="translate(955.98 832.69) rotate(-180)" fill="#999"/><rect x="210.9" y="91.89" width="163" height="200" rx="10.21" fill="#f2f2f2"/><path d="M350.9,176.39a58.58,58.58,0,0,1-33.22,52.76,57.63,57.63,0,0,1-12.18,4.26l-.12,0c-1.65.38-3.32.69-5,.91a58.3,58.3,0,0,1-8,.55H292c-1.72,0-3.43-.09-5.1-.25l-.8-.08a57.26,57.26,0,0,1-13.57-3.11,58.51,58.51,0,1,1,78.34-55.05Z" fill="#e6e6e6"/><path d="M284.7,167.15a3.85,3.85,0,1,1-7.7,0,3.93,3.93,0,0,1,.27-1.41,3.85,3.85,0,0,1,6.41-1.2A3.82,3.82,0,0,1,284.7,167.15Z" fill="#f9b499"/><circle cx="314.72" cy="159.45" r="3.85" fill="#f9b499"/><polygon points="282.89 170.42 282.89 189.32 296.25 197.17 303.18 191.78 303.18 182.33 287.01 167.92 284.63 167.92 282.89 170.42" fill="#f9b499"/><path d="M303.18,182.33v8.15s-14.36-2.45-16-15.2Z" fill="#f7a48b"/><path d="M337.78,213.29A58.49,58.49,0,0,1,242.53,207c1.11-1.29,8.25-8.41,32.09-9.81l10.08,2.31,16.94-.88,5.84.88,3.39-2.31S330.82,203.31,337.78,213.29Z" fill="#2f2e41"/><path d="M286.24,234.12l-.11.43a57.26,57.26,0,0,1-13.57-3.11l5.21-5.79-16.9-26.78c3.11-.62,13.75-1.7,13.75-1.7Z" opacity="0.2"/><path d="M311.64,222.57l6,6.58a57.63,57.63,0,0,1-12.18,4.26l0-.06,5.39-36.18s9.85,3.47,11.09,4.44Z" opacity="0.2"/><path d="M312.35,142.06s4.3,9.31,2,14.7a27.16,27.16,0,0,0-4.6-12.72A6.46,6.46,0,0,1,312.35,142.06Z" fill="#2f2e41"/><path d="M312.35,142.06s4.3,9.31,2,14.7a27.16,27.16,0,0,0-4.6-12.72A6.46,6.46,0,0,1,312.35,142.06Z" opacity="0.2"/><ellipse cx="299.02" cy="160.6" rx="16.29" ry="25.5" transform="translate(-23.21 53.97) rotate(-9.93)" fill="#f9b499"/><path d="M311.64,138.67a14.61,14.61,0,0,0,3.08-.38s-2.32,8-13.08,7.27c0,0-14.12-1-18.12,3.22a1.6,1.6,0,0,0-.37,1.6,26,26,0,0,1,.53,14.16,3.85,3.85,0,0,0-6.41,1.2l-.27,0s-6.92-10.95-3.84-22.5a11,11,0,0,0-3.08,1.54s-.77-2.66,3.46-2.86c0,0-1.92-5,3.46-8,0,0-2.3,3.16-1.53,6.24a14.48,14.48,0,0,1,10.77-10.78s10.16-2,12.78-4.09a20.36,20.36,0,0,1-5.08,6.4s12.31-.77,15.39-3.84a7.14,7.14,0,0,1-2.31,4.61s5.39-.08,7.7-1.57C314.72,130.94,314,137.13,311.64,138.67Z" fill="#2f2e41"/><path d="M310.87,197.17l-5.49,36.26a57.83,57.83,0,0,1-13,1.46c-1.85,0-3.67-.09-5.47-.26l-12.31-37.46,3.15-.77,5.12-7.08,13.36,7.85,6.93-5.39,5.21,5.39Z" fill="#fff"/><path d="M297.79,213.34l2.58,21a58.3,58.3,0,0,1-8,.55H292l.72-22.91-3.43-5.56,6.93-6.93,5.39,6.16Z" fill="#4ad97d"/><path d="M329.47,241.05c1.7-2.41,4.38-3.61,8-3.61s6.33,1.2,8,3.61,2.57,5.7,2.57,9.88-.85,7.55-2.55,9.95-4.39,3.61-8.06,3.61-6.35-1.2-8-3.61-2.53-5.72-2.53-9.95S327.77,243.46,329.47,241.05Zm10.86,4.87a3.2,3.2,0,0,0-5.68,0,14.09,14.09,0,0,0-.69,5,14.75,14.75,0,0,0,.67,5.09,3.23,3.23,0,0,0,5.72,0,14.71,14.71,0,0,0,.68-5.09A13.83,13.83,0,0,0,340.33,245.92Z" fill="#e6e6e6"/><path d="M350.11,244.7V238h11.22v26.65h-7.47V244.7Z" fill="#e6e6e6"/><g opacity="0.25"><path d="M474.31,244.38l-1.44,4.18h-1.49l-1.45-4.18h1.25l.95,3,.94-3Z" fill="#4ad97d"/><path d="M475.59,248.33a2.06,2.06,0,0,1-.78-.77,2.12,2.12,0,0,1-.28-1.1,2.18,2.18,0,0,1,.28-1.11,2,2,0,0,1,.78-.76,2.22,2.22,0,0,1,1.08-.27,2.19,2.19,0,0,1,1.08.27,2,2,0,0,1,.77.76,2.19,2.19,0,0,1,.29,1.11,2.12,2.12,0,0,1-.29,1.1,2,2,0,0,1-.77.77,2.3,2.3,0,0,1-2.16,0Zm1.78-1.1a1.12,1.12,0,0,0,.26-.77,1.16,1.16,0,0,0-.26-.79.88.88,0,0,0-.7-.28.87.87,0,0,0-.7.28,1.32,1.32,0,0,0,0,1.57.87.87,0,0,0,.7.28A.86.86,0,0,0,477.37,247.23Z" fill="#4ad97d"/><path d="M482.47,244.38v.93h-1.11v3.25H480.2v-3.25h-1.1v-.93Z" fill="#4ad97d"/><path d="M484.07,245.31V246h1.33v.88h-1.33v.75h1.51v.93h-2.67v-4.18h2.67v.93Z" fill="#4ad97d"/></g></svg>